<mxfile host="65bd71144e" modified="2020-11-28T06:44:52.217Z" agent="5.0 (Macintosh; Intel Mac OS X 10_14_6) AppleWebKit/537.36 (KHTML, like Gecko) Code/1.51.1 Chrome/83.0.4103.122 Electron/9.3.3 Safari/537.36" etag="wDOznNtvNiECJy7_0_un" version="13.6.5" pages="2">
    <diagram id="sFeoPyR65rg2EYoxCu2J" name="Page-1">
        <mxGraphModel dx="1053" dy="713" grid="1" gridSize="10" guides="1" tooltips="1" connect="1" arrows="1" fold="1" page="1" pageScale="1" pageWidth="827" pageHeight="1169" math="0" shadow="0">
            <root>
                <mxCell id="0"/>
                <mxCell id="1" parent="0"/>
                <mxCell id="PddgiYVKy51nm9DqDGZB-1" value="App" style="rounded=0;whiteSpace=wrap;html=1;fontSize=16;fillColor=#dae8fc;strokeColor=#6c8ebf;" parent="1" vertex="1">
                    <mxGeometry x="200" y="200" width="160" height="40" as="geometry"/>
                </mxCell>
                <mxCell id="PddgiYVKy51nm9DqDGZB-11" style="edgeStyle=orthogonalEdgeStyle;rounded=0;orthogonalLoop=1;jettySize=auto;html=1;exitX=1;exitY=0.5;exitDx=0;exitDy=0;fontSize=16;" parent="1" source="PddgiYVKy51nm9DqDGZB-2" target="PddgiYVKy51nm9DqDGZB-6" edge="1">
                    <mxGeometry relative="1" as="geometry"/>
                </mxCell>
                <mxCell id="PddgiYVKy51nm9DqDGZB-2" value="&lt;font style=&quot;font-size: 14px&quot;&gt;memoizedState&lt;/font&gt;" style="rounded=0;whiteSpace=wrap;html=1;fontSize=16;" parent="1" vertex="1">
                    <mxGeometry x="200" y="240" width="160" height="20" as="geometry"/>
                </mxCell>
                <mxCell id="PddgiYVKy51nm9DqDGZB-4" value="&lt;span style=&quot;font-size: 14px;&quot;&gt;memoizedState: 0&lt;/span&gt;" style="rounded=0;whiteSpace=wrap;html=1;fontSize=14;" parent="1" vertex="1">
                    <mxGeometry x="400" y="175" width="200" height="30" as="geometry"/>
                </mxCell>
                <mxCell id="PddgiYVKy51nm9DqDGZB-5" value="baseState: 0" style="rounded=0;whiteSpace=wrap;html=1;fontSize=14;" parent="1" vertex="1">
                    <mxGeometry x="400" y="205" width="200" height="30" as="geometry"/>
                </mxCell>
                <mxCell id="PddgiYVKy51nm9DqDGZB-6" value="baseQueue: null" style="rounded=0;whiteSpace=wrap;html=1;fontSize=14;" parent="1" vertex="1">
                    <mxGeometry x="400" y="235" width="200" height="30" as="geometry"/>
                </mxCell>
                <mxCell id="PddgiYVKy51nm9DqDGZB-12" style="edgeStyle=orthogonalEdgeStyle;rounded=0;orthogonalLoop=1;jettySize=auto;html=1;exitX=1;exitY=0.5;exitDx=0;exitDy=0;fontSize=14;entryX=0;entryY=0.5;entryDx=0;entryDy=0;" parent="1" source="PddgiYVKy51nm9DqDGZB-7" edge="1" target="FrwFo-7Cvaj9nVNNmANv-23">
                    <mxGeometry relative="1" as="geometry">
                        <mxPoint x="640" y="280" as="targetPoint"/>
                    </mxGeometry>
                </mxCell>
                <mxCell id="PddgiYVKy51nm9DqDGZB-7" value="queue" style="rounded=0;whiteSpace=wrap;html=1;fontSize=14;" parent="1" vertex="1">
                    <mxGeometry x="400" y="265" width="200" height="30" as="geometry"/>
                </mxCell>
                <mxCell id="PddgiYVKy51nm9DqDGZB-24" style="edgeStyle=orthogonalEdgeStyle;rounded=0;orthogonalLoop=1;jettySize=auto;html=1;exitX=0.5;exitY=1;exitDx=0;exitDy=0;entryX=0.5;entryY=0;entryDx=0;entryDy=0;fontSize=14;fontColor=#000000;" parent="1" source="PddgiYVKy51nm9DqDGZB-9" target="PddgiYVKy51nm9DqDGZB-19" edge="1">
                    <mxGeometry relative="1" as="geometry"/>
                </mxCell>
                <mxCell id="PddgiYVKy51nm9DqDGZB-9" value="next" style="rounded=0;whiteSpace=wrap;html=1;fontSize=14;" parent="1" vertex="1">
                    <mxGeometry x="400" y="295" width="200" height="30" as="geometry"/>
                </mxCell>
                <mxCell id="PddgiYVKy51nm9DqDGZB-19" value="&lt;span style=&quot;font-size: 14px&quot;&gt;memoizedState&lt;/span&gt;" style="rounded=0;whiteSpace=wrap;html=1;fontSize=14;" parent="1" vertex="1">
                    <mxGeometry x="400" y="380" width="200" height="30" as="geometry"/>
                </mxCell>
                <mxCell id="PddgiYVKy51nm9DqDGZB-20" value="baseState: null" style="rounded=0;whiteSpace=wrap;html=1;fontSize=14;" parent="1" vertex="1">
                    <mxGeometry x="400" y="410" width="200" height="30" as="geometry"/>
                </mxCell>
                <mxCell id="PddgiYVKy51nm9DqDGZB-21" value="baseQueue: null" style="rounded=0;whiteSpace=wrap;html=1;fontSize=14;" parent="1" vertex="1">
                    <mxGeometry x="400" y="440" width="200" height="30" as="geometry"/>
                </mxCell>
                <mxCell id="PddgiYVKy51nm9DqDGZB-22" value="queue: null" style="rounded=0;whiteSpace=wrap;html=1;fontSize=14;" parent="1" vertex="1">
                    <mxGeometry x="400" y="470" width="200" height="30" as="geometry"/>
                </mxCell>
                <mxCell id="U7CGdYN_7ewJUNfa-8Mk-10" style="edgeStyle=orthogonalEdgeStyle;rounded=0;orthogonalLoop=1;jettySize=auto;html=1;exitX=0.5;exitY=1;exitDx=0;exitDy=0;entryX=0.5;entryY=0;entryDx=0;entryDy=0;" edge="1" parent="1" source="PddgiYVKy51nm9DqDGZB-23" target="U7CGdYN_7ewJUNfa-8Mk-1">
                    <mxGeometry relative="1" as="geometry"/>
                </mxCell>
                <mxCell id="PddgiYVKy51nm9DqDGZB-23" value="next" style="rounded=0;whiteSpace=wrap;html=1;fontSize=14;" parent="1" vertex="1">
                    <mxGeometry x="400" y="500" width="200" height="30" as="geometry"/>
                </mxCell>
                <mxCell id="PddgiYVKy51nm9DqDGZB-25" style="edgeStyle=orthogonalEdgeStyle;rounded=0;orthogonalLoop=1;jettySize=auto;html=1;exitX=1;exitY=0.5;exitDx=0;exitDy=0;fontSize=14;entryX=0;entryY=0.5;entryDx=0;entryDy=0;" parent="1" source="PddgiYVKy51nm9DqDGZB-19" target="PddgiYVKy51nm9DqDGZB-26" edge="1">
                    <mxGeometry relative="1" as="geometry">
                        <mxPoint x="750" y="485" as="targetPoint"/>
                        <mxPoint x="600" y="485" as="sourcePoint"/>
                        <Array as="points"/>
                    </mxGeometry>
                </mxCell>
                <mxCell id="PddgiYVKy51nm9DqDGZB-26" value="create: () =&amp;gt; console.log(1)" style="rounded=0;whiteSpace=wrap;html=1;fontSize=14;" parent="1" vertex="1">
                    <mxGeometry x="650" y="380" width="300" height="30" as="geometry"/>
                </mxCell>
                <mxCell id="PddgiYVKy51nm9DqDGZB-27" value="deps: []" style="rounded=0;whiteSpace=wrap;html=1;fontSize=14;" parent="1" vertex="1">
                    <mxGeometry x="650" y="410" width="300" height="30" as="geometry"/>
                </mxCell>
                <mxCell id="PddgiYVKy51nm9DqDGZB-28" value="destroy: undefined" style="rounded=0;whiteSpace=wrap;html=1;fontSize=14;" parent="1" vertex="1">
                    <mxGeometry x="650" y="440" width="300" height="30" as="geometry"/>
                </mxCell>
                <mxCell id="PddgiYVKy51nm9DqDGZB-29" value="tag: 5" style="rounded=0;whiteSpace=wrap;html=1;fontSize=14;" parent="1" vertex="1">
                    <mxGeometry x="650" y="470" width="300" height="30" as="geometry"/>
                </mxCell>
                <mxCell id="U7CGdYN_7ewJUNfa-8Mk-8" style="edgeStyle=orthogonalEdgeStyle;rounded=0;orthogonalLoop=1;jettySize=auto;html=1;exitX=0.5;exitY=1;exitDx=0;exitDy=0;entryX=0.5;entryY=0;entryDx=0;entryDy=0;" edge="1" parent="1" source="WnDHjIJW5Unx3fu1yhXS-1" target="WnDHjIJW5Unx3fu1yhXS-2">
                    <mxGeometry relative="1" as="geometry"/>
                </mxCell>
                <mxCell id="WnDHjIJW5Unx3fu1yhXS-1" value="next" style="rounded=0;whiteSpace=wrap;html=1;fontSize=14;" parent="1" vertex="1">
                    <mxGeometry x="650" y="500" width="300" height="30" as="geometry"/>
                </mxCell>
                <mxCell id="WnDHjIJW5Unx3fu1yhXS-2" value="create: () =&amp;gt; console.log(2, num)" style="rounded=0;whiteSpace=wrap;html=1;fontSize=14;" parent="1" vertex="1">
                    <mxGeometry x="650" y="585" width="300" height="30" as="geometry"/>
                </mxCell>
                <mxCell id="WnDHjIJW5Unx3fu1yhXS-3" value="deps: [0]" style="rounded=0;whiteSpace=wrap;html=1;fontSize=14;" parent="1" vertex="1">
                    <mxGeometry x="650" y="615" width="300" height="30" as="geometry"/>
                </mxCell>
                <mxCell id="WnDHjIJW5Unx3fu1yhXS-4" value="destroy: undefined" style="rounded=0;whiteSpace=wrap;html=1;fontSize=14;" parent="1" vertex="1">
                    <mxGeometry x="650" y="645" width="300" height="30" as="geometry"/>
                </mxCell>
                <mxCell id="WnDHjIJW5Unx3fu1yhXS-5" value="tag: 5" style="rounded=0;whiteSpace=wrap;html=1;fontSize=14;" parent="1" vertex="1">
                    <mxGeometry x="650" y="675" width="300" height="30" as="geometry"/>
                </mxCell>
                <mxCell id="U7CGdYN_7ewJUNfa-8Mk-9" style="edgeStyle=orthogonalEdgeStyle;rounded=0;orthogonalLoop=1;jettySize=auto;html=1;entryX=0.5;entryY=0;entryDx=0;entryDy=0;exitX=0.5;exitY=1;exitDx=0;exitDy=0;" edge="1" parent="1" source="WnDHjIJW5Unx3fu1yhXS-6" target="PddgiYVKy51nm9DqDGZB-26">
                    <mxGeometry relative="1" as="geometry">
                        <Array as="points">
                            <mxPoint x="800" y="755"/>
                            <mxPoint x="970" y="755"/>
                            <mxPoint x="970" y="360"/>
                            <mxPoint x="800" y="360"/>
                        </Array>
                    </mxGeometry>
                </mxCell>
                <mxCell id="WnDHjIJW5Unx3fu1yhXS-6" value="next" style="rounded=0;whiteSpace=wrap;html=1;fontSize=14;" parent="1" vertex="1">
                    <mxGeometry x="650" y="705" width="300" height="30" as="geometry"/>
                </mxCell>
                <mxCell id="WnDHjIJW5Unx3fu1yhXS-11" style="edgeStyle=orthogonalEdgeStyle;rounded=0;orthogonalLoop=1;jettySize=auto;html=1;exitX=1;exitY=0.5;exitDx=0;exitDy=0;entryX=0;entryY=0.5;entryDx=0;entryDy=0;" parent="1" source="WnDHjIJW5Unx3fu1yhXS-9" target="WnDHjIJW5Unx3fu1yhXS-10" edge="1">
                    <mxGeometry relative="1" as="geometry"/>
                </mxCell>
                <mxCell id="q10QnpeFrF96mbJcZ3aC-1" style="edgeStyle=orthogonalEdgeStyle;rounded=0;orthogonalLoop=1;jettySize=auto;html=1;exitX=0.25;exitY=1;exitDx=0;exitDy=0;entryX=0.25;entryY=0;entryDx=0;entryDy=0;" parent="1" source="WnDHjIJW5Unx3fu1yhXS-9" target="GV3TZQ_lbvVxqC_Bi82H-1" edge="1">
                    <mxGeometry relative="1" as="geometry"/>
                </mxCell>
                <mxCell id="q10QnpeFrF96mbJcZ3aC-3" value="alternate" style="edgeLabel;html=1;align=center;verticalAlign=middle;resizable=0;points=[];" parent="q10QnpeFrF96mbJcZ3aC-1" vertex="1" connectable="0">
                    <mxGeometry x="-0.6683" relative="1" as="geometry">
                        <mxPoint as="offset"/>
                    </mxGeometry>
                </mxCell>
                <mxCell id="WnDHjIJW5Unx3fu1yhXS-9" value="&lt;font style=&quot;font-size: 14px&quot;&gt;updateQueue&lt;/font&gt;" style="rounded=0;whiteSpace=wrap;html=1;fontSize=16;" parent="1" vertex="1">
                    <mxGeometry x="200" y="260" width="160" height="20" as="geometry"/>
                </mxCell>
                <mxCell id="WnDHjIJW5Unx3fu1yhXS-12" style="edgeStyle=orthogonalEdgeStyle;rounded=0;orthogonalLoop=1;jettySize=auto;html=1;exitX=1;exitY=0.5;exitDx=0;exitDy=0;entryX=0.33;entryY=1.1;entryDx=0;entryDy=0;entryPerimeter=0;" parent="1" source="WnDHjIJW5Unx3fu1yhXS-10" target="WnDHjIJW5Unx3fu1yhXS-6" edge="1">
                    <mxGeometry relative="1" as="geometry"/>
                </mxCell>
                <mxCell id="WnDHjIJW5Unx3fu1yhXS-10" value="lastEffect" style="rounded=0;whiteSpace=wrap;html=1;fontSize=14;" parent="1" vertex="1">
                    <mxGeometry x="400" y="760" width="200" height="30" as="geometry"/>
                </mxCell>
                <mxCell id="FrwFo-7Cvaj9nVNNmANv-20" style="edgeStyle=orthogonalEdgeStyle;rounded=0;orthogonalLoop=1;jettySize=auto;html=1;exitX=0.5;exitY=0;exitDx=0;exitDy=0;entryX=0.25;entryY=0;entryDx=0;entryDy=0;" parent="1" source="FrwFo-7Cvaj9nVNNmANv-21" target="FrwFo-7Cvaj9nVNNmANv-25" edge="1">
                    <mxGeometry relative="1" as="geometry"/>
                </mxCell>
                <mxCell id="FrwFo-7Cvaj9nVNNmANv-21" value="pending" style="rounded=0;whiteSpace=wrap;html=1;fontSize=14;" parent="1" vertex="1">
                    <mxGeometry x="650" y="205" width="300" height="30" as="geometry"/>
                </mxCell>
                <mxCell id="FrwFo-7Cvaj9nVNNmANv-22" value="dispatch: ..." style="rounded=0;whiteSpace=wrap;html=1;fontSize=14;" parent="1" vertex="1">
                    <mxGeometry x="650" y="235" width="300" height="30" as="geometry"/>
                </mxCell>
                <mxCell id="FrwFo-7Cvaj9nVNNmANv-23" value="&lt;font style=&quot;font-size: 14px;&quot;&gt;lastRenderedReducer:&amp;nbsp;&lt;span style=&quot;background-color: rgb(255, 255, 255); font-size: 14px;&quot;&gt;basicStateReducer&lt;/span&gt;&lt;/font&gt;" style="rounded=0;whiteSpace=wrap;html=1;fontSize=14;" parent="1" vertex="1">
                    <mxGeometry x="650" y="265" width="300" height="30" as="geometry"/>
                </mxCell>
                <mxCell id="FrwFo-7Cvaj9nVNNmANv-24" value="lastRenderedState: 0" style="rounded=0;whiteSpace=wrap;html=1;fontSize=14;" parent="1" vertex="1">
                    <mxGeometry x="650" y="295" width="300" height="30" as="geometry"/>
                </mxCell>
                <mxCell id="FrwFo-7Cvaj9nVNNmANv-25" value="&lt;div&gt;expirationTime&lt;/div&gt;" style="rounded=0;whiteSpace=wrap;html=1;fontSize=14;" parent="1" vertex="1">
                    <mxGeometry x="990" y="185" width="230" height="30" as="geometry"/>
                </mxCell>
                <mxCell id="FrwFo-7Cvaj9nVNNmANv-26" value="&lt;div&gt;suspenseConfig: null&lt;/div&gt;" style="rounded=0;whiteSpace=wrap;html=1;fontSize=14;" parent="1" vertex="1">
                    <mxGeometry x="990" y="215" width="230" height="30" as="geometry"/>
                </mxCell>
                <mxCell id="FrwFo-7Cvaj9nVNNmANv-27" value="action: 1" style="rounded=0;whiteSpace=wrap;html=1;fontSize=14;" parent="1" vertex="1">
                    <mxGeometry x="990" y="245" width="230" height="30" as="geometry"/>
                </mxCell>
                <mxCell id="FrwFo-7Cvaj9nVNNmANv-28" value="eagerReducer: &lt;span style=&quot;background-color: rgb(255 , 255 , 255)&quot;&gt;null&lt;/span&gt;" style="rounded=0;whiteSpace=wrap;html=1;fontSize=14;" parent="1" vertex="1">
                    <mxGeometry x="990" y="275" width="230" height="30" as="geometry"/>
                </mxCell>
                <mxCell id="FrwFo-7Cvaj9nVNNmANv-29" value="&lt;span style=&quot;font-family: &amp;#34;helvetica&amp;#34;&quot;&gt;eagerState: null&lt;/span&gt;" style="rounded=0;whiteSpace=wrap;html=1;fontSize=14;" parent="1" vertex="1">
                    <mxGeometry x="990" y="305" width="230" height="30" as="geometry"/>
                </mxCell>
                <mxCell id="FrwFo-7Cvaj9nVNNmANv-30" style="edgeStyle=orthogonalEdgeStyle;rounded=0;orthogonalLoop=1;jettySize=auto;html=1;exitX=1;exitY=0.5;exitDx=0;exitDy=0;entryX=0.5;entryY=0;entryDx=0;entryDy=0;" parent="1" source="FrwFo-7Cvaj9nVNNmANv-31" target="FrwFo-7Cvaj9nVNNmANv-25" edge="1">
                    <mxGeometry relative="1" as="geometry">
                        <Array as="points">
                            <mxPoint x="1231" y="350"/>
                            <mxPoint x="1231" y="165"/>
                            <mxPoint x="1105" y="165"/>
                        </Array>
                        <mxPoint x="1308.5" y="185" as="targetPoint"/>
                    </mxGeometry>
                </mxCell>
                <mxCell id="FrwFo-7Cvaj9nVNNmANv-31" value="next" style="rounded=0;whiteSpace=wrap;html=1;fontSize=14;" parent="1" vertex="1">
                    <mxGeometry x="990" y="335" width="230" height="30" as="geometry"/>
                </mxCell>
                <mxCell id="q10QnpeFrF96mbJcZ3aC-2" style="edgeStyle=orthogonalEdgeStyle;rounded=0;orthogonalLoop=1;jettySize=auto;html=1;exitX=0.75;exitY=0;exitDx=0;exitDy=0;entryX=0.75;entryY=1;entryDx=0;entryDy=0;" parent="1" source="GV3TZQ_lbvVxqC_Bi82H-1" target="WnDHjIJW5Unx3fu1yhXS-9" edge="1">
                    <mxGeometry relative="1" as="geometry"/>
                </mxCell>
                <mxCell id="q10QnpeFrF96mbJcZ3aC-4" value="alternate" style="edgeLabel;html=1;align=center;verticalAlign=middle;resizable=0;points=[];" parent="q10QnpeFrF96mbJcZ3aC-2" vertex="1" connectable="0">
                    <mxGeometry x="0.4244" y="-4" relative="1" as="geometry">
                        <mxPoint as="offset"/>
                    </mxGeometry>
                </mxCell>
                <mxCell id="GV3TZQ_lbvVxqC_Bi82H-1" value="App" style="rounded=0;whiteSpace=wrap;html=1;fontSize=16;fillColor=#d5e8d4;strokeColor=#82b366;" parent="1" vertex="1">
                    <mxGeometry x="200" y="934" width="160" height="40" as="geometry"/>
                </mxCell>
                <mxCell id="GV3TZQ_lbvVxqC_Bi82H-2" value="&lt;font style=&quot;font-size: 14px&quot;&gt;memoizedState&lt;/font&gt;" style="rounded=0;whiteSpace=wrap;html=1;fontSize=16;" parent="1" vertex="1">
                    <mxGeometry x="200" y="974" width="160" height="20" as="geometry"/>
                </mxCell>
                <mxCell id="U7CGdYN_7ewJUNfa-8Mk-19" style="edgeStyle=orthogonalEdgeStyle;rounded=0;orthogonalLoop=1;jettySize=auto;html=1;exitX=1;exitY=0.5;exitDx=0;exitDy=0;entryX=0;entryY=0.5;entryDx=0;entryDy=0;" edge="1" parent="1" source="GV3TZQ_lbvVxqC_Bi82H-3" target="U7CGdYN_7ewJUNfa-8Mk-18">
                    <mxGeometry relative="1" as="geometry"/>
                </mxCell>
                <mxCell id="GV3TZQ_lbvVxqC_Bi82H-3" value="&lt;font style=&quot;font-size: 14px&quot;&gt;updateQueue&lt;/font&gt;" style="rounded=0;whiteSpace=wrap;html=1;fontSize=16;" parent="1" vertex="1">
                    <mxGeometry x="200" y="994" width="160" height="20" as="geometry"/>
                </mxCell>
                <mxCell id="GV3TZQ_lbvVxqC_Bi82H-10" style="edgeStyle=orthogonalEdgeStyle;rounded=0;orthogonalLoop=1;jettySize=auto;html=1;fontSize=16;" parent="1" target="GV3TZQ_lbvVxqC_Bi82H-13" edge="1">
                    <mxGeometry relative="1" as="geometry">
                        <mxPoint x="360" y="985" as="sourcePoint"/>
                    </mxGeometry>
                </mxCell>
                <mxCell id="GV3TZQ_lbvVxqC_Bi82H-11" value="&lt;span style=&quot;font-size: 14px&quot;&gt;memoizedState: 1&lt;/span&gt;" style="rounded=0;whiteSpace=wrap;html=1;fontSize=14;" parent="1" vertex="1">
                    <mxGeometry x="400" y="910" width="200" height="30" as="geometry"/>
                </mxCell>
                <mxCell id="GV3TZQ_lbvVxqC_Bi82H-12" value="baseState: 1" style="rounded=0;whiteSpace=wrap;html=1;fontSize=14;" parent="1" vertex="1">
                    <mxGeometry x="400" y="940" width="200" height="30" as="geometry"/>
                </mxCell>
                <mxCell id="GV3TZQ_lbvVxqC_Bi82H-13" value="baseQueue: null" style="rounded=0;whiteSpace=wrap;html=1;fontSize=14;" parent="1" vertex="1">
                    <mxGeometry x="400" y="970" width="200" height="30" as="geometry"/>
                </mxCell>
                <mxCell id="GV3TZQ_lbvVxqC_Bi82H-14" style="edgeStyle=orthogonalEdgeStyle;rounded=0;orthogonalLoop=1;jettySize=auto;html=1;exitX=1;exitY=0.5;exitDx=0;exitDy=0;fontSize=14;entryX=0;entryY=0.5;entryDx=0;entryDy=0;" parent="1" source="GV3TZQ_lbvVxqC_Bi82H-15" target="GV3TZQ_lbvVxqC_Bi82H-19" edge="1">
                    <mxGeometry relative="1" as="geometry">
                        <mxPoint x="750" y="1015" as="targetPoint"/>
                    </mxGeometry>
                </mxCell>
                <mxCell id="GV3TZQ_lbvVxqC_Bi82H-15" value="queue" style="rounded=0;whiteSpace=wrap;html=1;fontSize=14;" parent="1" vertex="1">
                    <mxGeometry x="400" y="1000" width="200" height="30" as="geometry"/>
                </mxCell>
                <mxCell id="GV3TZQ_lbvVxqC_Bi82H-16" value="next" style="rounded=0;whiteSpace=wrap;html=1;fontSize=14;" parent="1" vertex="1">
                    <mxGeometry x="400" y="1030" width="200" height="30" as="geometry"/>
                </mxCell>
                <mxCell id="GV3TZQ_lbvVxqC_Bi82H-17" value="pending: null" style="rounded=0;whiteSpace=wrap;html=1;fontSize=14;" parent="1" vertex="1">
                    <mxGeometry x="640" y="940" width="300" height="30" as="geometry"/>
                </mxCell>
                <mxCell id="GV3TZQ_lbvVxqC_Bi82H-18" value="dispatch: ..." style="rounded=0;whiteSpace=wrap;html=1;fontSize=14;" parent="1" vertex="1">
                    <mxGeometry x="640" y="970" width="300" height="30" as="geometry"/>
                </mxCell>
                <mxCell id="GV3TZQ_lbvVxqC_Bi82H-19" value="&lt;font style=&quot;font-size: 14px;&quot;&gt;lastRenderedReducer:&amp;nbsp;&lt;span style=&quot;background-color: rgb(255, 255, 255); font-size: 14px;&quot;&gt;basicStateReducer&lt;/span&gt;&lt;/font&gt;" style="rounded=0;whiteSpace=wrap;html=1;fontSize=14;" parent="1" vertex="1">
                    <mxGeometry x="640" y="1000" width="300" height="30" as="geometry"/>
                </mxCell>
                <mxCell id="GV3TZQ_lbvVxqC_Bi82H-20" value="lastRenderedState: 1" style="rounded=0;whiteSpace=wrap;html=1;fontSize=14;" parent="1" vertex="1">
                    <mxGeometry x="640" y="1030" width="300" height="30" as="geometry"/>
                </mxCell>
                <mxCell id="GV3TZQ_lbvVxqC_Bi82H-23" value="create: () =&amp;gt; console.log(1)" style="rounded=0;whiteSpace=wrap;html=1;fontSize=14;" parent="1" vertex="1">
                    <mxGeometry x="640" y="1500" width="300" height="30" as="geometry"/>
                </mxCell>
                <mxCell id="GV3TZQ_lbvVxqC_Bi82H-24" value="deps: []" style="rounded=0;whiteSpace=wrap;html=1;fontSize=14;" parent="1" vertex="1">
                    <mxGeometry x="640" y="1530" width="300" height="30" as="geometry"/>
                </mxCell>
                <mxCell id="GV3TZQ_lbvVxqC_Bi82H-25" value="destroy: undefined" style="rounded=0;whiteSpace=wrap;html=1;fontSize=14;" parent="1" vertex="1">
                    <mxGeometry x="640" y="1560" width="300" height="30" as="geometry"/>
                </mxCell>
                <mxCell id="GV3TZQ_lbvVxqC_Bi82H-26" value="&lt;font color=&quot;#3333ff&quot;&gt;tag: 4&lt;/font&gt;" style="rounded=0;whiteSpace=wrap;html=1;fontSize=14;" parent="1" vertex="1">
                    <mxGeometry x="640" y="1590" width="300" height="30" as="geometry"/>
                </mxCell>
                <mxCell id="U7CGdYN_7ewJUNfa-8Mk-21" style="edgeStyle=orthogonalEdgeStyle;rounded=0;orthogonalLoop=1;jettySize=auto;html=1;entryX=0.5;entryY=0;entryDx=0;entryDy=0;exitX=0.5;exitY=1;exitDx=0;exitDy=0;" edge="1" parent="1" source="GV3TZQ_lbvVxqC_Bi82H-27" target="GV3TZQ_lbvVxqC_Bi82H-28">
                    <mxGeometry relative="1" as="geometry">
                        <Array as="points">
                            <mxPoint x="790" y="1670"/>
                            <mxPoint x="960" y="1670"/>
                            <mxPoint x="960" y="1300"/>
                            <mxPoint x="790" y="1300"/>
                        </Array>
                    </mxGeometry>
                </mxCell>
                <mxCell id="GV3TZQ_lbvVxqC_Bi82H-27" value="next" style="rounded=0;whiteSpace=wrap;html=1;fontSize=14;" parent="1" vertex="1">
                    <mxGeometry x="640" y="1620" width="300" height="30" as="geometry"/>
                </mxCell>
                <mxCell id="GV3TZQ_lbvVxqC_Bi82H-28" value="create: () =&amp;gt; console.log(2, num)" style="rounded=0;whiteSpace=wrap;html=1;fontSize=14;" parent="1" vertex="1">
                    <mxGeometry x="640" y="1320" width="300" height="30" as="geometry"/>
                </mxCell>
                <mxCell id="GV3TZQ_lbvVxqC_Bi82H-29" value="deps: [1]" style="rounded=0;whiteSpace=wrap;html=1;fontSize=14;" parent="1" vertex="1">
                    <mxGeometry x="640" y="1350" width="300" height="30" as="geometry"/>
                </mxCell>
                <mxCell id="GV3TZQ_lbvVxqC_Bi82H-30" value="destroy: undefined" style="rounded=0;whiteSpace=wrap;html=1;fontSize=14;" parent="1" vertex="1">
                    <mxGeometry x="640" y="1380" width="300" height="30" as="geometry"/>
                </mxCell>
                <mxCell id="GV3TZQ_lbvVxqC_Bi82H-31" value="tag: 5" style="rounded=0;whiteSpace=wrap;html=1;fontSize=14;" parent="1" vertex="1">
                    <mxGeometry x="640" y="1410" width="300" height="30" as="geometry"/>
                </mxCell>
                <mxCell id="U7CGdYN_7ewJUNfa-8Mk-22" style="edgeStyle=orthogonalEdgeStyle;rounded=0;orthogonalLoop=1;jettySize=auto;html=1;exitX=0.5;exitY=1;exitDx=0;exitDy=0;" edge="1" parent="1" source="GV3TZQ_lbvVxqC_Bi82H-32" target="GV3TZQ_lbvVxqC_Bi82H-23">
                    <mxGeometry relative="1" as="geometry"/>
                </mxCell>
                <mxCell id="GV3TZQ_lbvVxqC_Bi82H-32" value="next" style="rounded=0;whiteSpace=wrap;html=1;fontSize=14;" parent="1" vertex="1">
                    <mxGeometry x="640" y="1440" width="300" height="30" as="geometry"/>
                </mxCell>
                <mxCell id="GV3TZQ_lbvVxqC_Bi82H-87" style="edgeStyle=orthogonalEdgeStyle;rounded=0;orthogonalLoop=1;jettySize=auto;html=1;exitX=0.5;exitY=1;exitDx=0;exitDy=0;entryX=0.5;entryY=0;entryDx=0;entryDy=0;fontSize=14;fontColor=#000000;" parent="1" target="GV3TZQ_lbvVxqC_Bi82H-88" edge="1">
                    <mxGeometry relative="1" as="geometry">
                        <mxPoint x="500" y="1060" as="sourcePoint"/>
                    </mxGeometry>
                </mxCell>
                <mxCell id="U7CGdYN_7ewJUNfa-8Mk-17" style="edgeStyle=orthogonalEdgeStyle;rounded=0;orthogonalLoop=1;jettySize=auto;html=1;exitX=1;exitY=0.5;exitDx=0;exitDy=0;entryX=1;entryY=0.5;entryDx=0;entryDy=0;" edge="1" parent="1" source="GV3TZQ_lbvVxqC_Bi82H-88" target="PddgiYVKy51nm9DqDGZB-26">
                    <mxGeometry relative="1" as="geometry">
                        <Array as="points">
                            <mxPoint x="1030" y="1130"/>
                            <mxPoint x="1030" y="395"/>
                        </Array>
                    </mxGeometry>
                </mxCell>
                <mxCell id="GV3TZQ_lbvVxqC_Bi82H-88" value="&lt;span style=&quot;font-size: 14px&quot;&gt;memoizedState&lt;/span&gt;" style="rounded=0;whiteSpace=wrap;html=1;fontSize=14;" parent="1" vertex="1">
                    <mxGeometry x="400" y="1115" width="200" height="30" as="geometry"/>
                </mxCell>
                <mxCell id="GV3TZQ_lbvVxqC_Bi82H-89" value="baseState: null" style="rounded=0;whiteSpace=wrap;html=1;fontSize=14;" parent="1" vertex="1">
                    <mxGeometry x="400" y="1145" width="200" height="30" as="geometry"/>
                </mxCell>
                <mxCell id="GV3TZQ_lbvVxqC_Bi82H-90" value="baseQueue: null" style="rounded=0;whiteSpace=wrap;html=1;fontSize=14;" parent="1" vertex="1">
                    <mxGeometry x="400" y="1175" width="200" height="30" as="geometry"/>
                </mxCell>
                <mxCell id="GV3TZQ_lbvVxqC_Bi82H-91" value="queue: null" style="rounded=0;whiteSpace=wrap;html=1;fontSize=14;" parent="1" vertex="1">
                    <mxGeometry x="400" y="1205" width="200" height="30" as="geometry"/>
                </mxCell>
                <mxCell id="U7CGdYN_7ewJUNfa-8Mk-16" style="edgeStyle=orthogonalEdgeStyle;rounded=0;orthogonalLoop=1;jettySize=auto;html=1;exitX=0.5;exitY=1;exitDx=0;exitDy=0;" edge="1" parent="1" source="GV3TZQ_lbvVxqC_Bi82H-92" target="U7CGdYN_7ewJUNfa-8Mk-11">
                    <mxGeometry relative="1" as="geometry"/>
                </mxCell>
                <mxCell id="GV3TZQ_lbvVxqC_Bi82H-92" value="next" style="rounded=0;whiteSpace=wrap;html=1;fontSize=14;" parent="1" vertex="1">
                    <mxGeometry x="400" y="1235" width="200" height="30" as="geometry"/>
                </mxCell>
                <mxCell id="U7CGdYN_7ewJUNfa-8Mk-7" style="edgeStyle=orthogonalEdgeStyle;rounded=0;orthogonalLoop=1;jettySize=auto;html=1;exitX=1;exitY=0.5;exitDx=0;exitDy=0;" edge="1" parent="1" source="U7CGdYN_7ewJUNfa-8Mk-1" target="WnDHjIJW5Unx3fu1yhXS-2">
                    <mxGeometry relative="1" as="geometry"/>
                </mxCell>
                <mxCell id="U7CGdYN_7ewJUNfa-8Mk-1" value="&lt;span style=&quot;font-size: 14px&quot;&gt;memoizedState&lt;/span&gt;" style="rounded=0;whiteSpace=wrap;html=1;fontSize=14;" vertex="1" parent="1">
                    <mxGeometry x="400" y="585" width="200" height="30" as="geometry"/>
                </mxCell>
                <mxCell id="U7CGdYN_7ewJUNfa-8Mk-2" value="baseState: null" style="rounded=0;whiteSpace=wrap;html=1;fontSize=14;" vertex="1" parent="1">
                    <mxGeometry x="400" y="615" width="200" height="30" as="geometry"/>
                </mxCell>
                <mxCell id="U7CGdYN_7ewJUNfa-8Mk-3" value="baseQueue: null" style="rounded=0;whiteSpace=wrap;html=1;fontSize=14;" vertex="1" parent="1">
                    <mxGeometry x="400" y="645" width="200" height="30" as="geometry"/>
                </mxCell>
                <mxCell id="U7CGdYN_7ewJUNfa-8Mk-4" value="queue: null" style="rounded=0;whiteSpace=wrap;html=1;fontSize=14;" vertex="1" parent="1">
                    <mxGeometry x="400" y="675" width="200" height="30" as="geometry"/>
                </mxCell>
                <mxCell id="U7CGdYN_7ewJUNfa-8Mk-5" value="next" style="rounded=0;whiteSpace=wrap;html=1;fontSize=14;" vertex="1" parent="1">
                    <mxGeometry x="400" y="705" width="200" height="30" as="geometry"/>
                </mxCell>
                <mxCell id="U7CGdYN_7ewJUNfa-8Mk-20" style="edgeStyle=orthogonalEdgeStyle;rounded=0;orthogonalLoop=1;jettySize=auto;html=1;exitX=1;exitY=0.5;exitDx=0;exitDy=0;entryX=0;entryY=0.5;entryDx=0;entryDy=0;" edge="1" parent="1" source="U7CGdYN_7ewJUNfa-8Mk-11" target="GV3TZQ_lbvVxqC_Bi82H-28">
                    <mxGeometry relative="1" as="geometry"/>
                </mxCell>
                <mxCell id="U7CGdYN_7ewJUNfa-8Mk-11" value="&lt;span style=&quot;font-size: 14px&quot;&gt;memoizedState&lt;/span&gt;" style="rounded=0;whiteSpace=wrap;html=1;fontSize=14;" vertex="1" parent="1">
                    <mxGeometry x="400" y="1320" width="200" height="30" as="geometry"/>
                </mxCell>
                <mxCell id="U7CGdYN_7ewJUNfa-8Mk-12" value="baseState: null" style="rounded=0;whiteSpace=wrap;html=1;fontSize=14;" vertex="1" parent="1">
                    <mxGeometry x="400" y="1350" width="200" height="30" as="geometry"/>
                </mxCell>
                <mxCell id="U7CGdYN_7ewJUNfa-8Mk-13" value="baseQueue: null" style="rounded=0;whiteSpace=wrap;html=1;fontSize=14;" vertex="1" parent="1">
                    <mxGeometry x="400" y="1380" width="200" height="30" as="geometry"/>
                </mxCell>
                <mxCell id="U7CGdYN_7ewJUNfa-8Mk-14" value="queue: null" style="rounded=0;whiteSpace=wrap;html=1;fontSize=14;" vertex="1" parent="1">
                    <mxGeometry x="400" y="1410" width="200" height="30" as="geometry"/>
                </mxCell>
                <mxCell id="U7CGdYN_7ewJUNfa-8Mk-15" value="next" style="rounded=0;whiteSpace=wrap;html=1;fontSize=14;" vertex="1" parent="1">
                    <mxGeometry x="400" y="1440" width="200" height="30" as="geometry"/>
                </mxCell>
                <mxCell id="U7CGdYN_7ewJUNfa-8Mk-23" style="edgeStyle=orthogonalEdgeStyle;rounded=0;orthogonalLoop=1;jettySize=auto;html=1;exitX=1;exitY=0.5;exitDx=0;exitDy=0;entryX=0;entryY=0.5;entryDx=0;entryDy=0;" edge="1" parent="1" source="U7CGdYN_7ewJUNfa-8Mk-18" target="GV3TZQ_lbvVxqC_Bi82H-28">
                    <mxGeometry relative="1" as="geometry"/>
                </mxCell>
                <mxCell id="U7CGdYN_7ewJUNfa-8Mk-18" value="lastEffect" style="rounded=0;whiteSpace=wrap;html=1;fontSize=14;" vertex="1" parent="1">
                    <mxGeometry x="400" y="1500" width="200" height="30" as="geometry"/>
                </mxCell>
            </root>
        </mxGraphModel>
    </diagram>
    <diagram id="gWZyklyBV3rZA-K7qELZ" name="Page-2">
        <mxGraphModel dx="321" dy="713" grid="1" gridSize="10" guides="1" tooltips="1" connect="1" arrows="1" fold="1" page="1" pageScale="1" pageWidth="827" pageHeight="1169" math="0" shadow="0">
            <root>
                <mxCell id="y6AtrcNOzKqOhUv7cTyo-0"/>
                <mxCell id="y6AtrcNOzKqOhUv7cTyo-1" parent="y6AtrcNOzKqOhUv7cTyo-0"/>
            </root>
        </mxGraphModel>
    </diagram>
</mxfile>